<svg version="1.1" viewBox="0 0 640 400" xmlns="http://www.w3.org/2000/svg" xmlns:xlink="http://www.w3.org/1999/xlink" xmlns:svgjs="http://svgjs.dev/svgjs" matcher="0.2283610116944832"><g viewBox="0 0 640 400" matcher="0.2283610116944832"><g matcher="0.2283610116944832"><g matcher="0.2283610116944832"><g matcher="0.2283610116944832"><svg viewBox="0 0 640 400" data-background-color="#510000" preserveAspectRatio="xMidYMid meet" height="400" width="640" xmlns="http://www.w3.org/2000/svg" xmlns:xlink="http://www.w3.org/1999/xlink"><rect width="640" height="400" x="0" y="0" opacity="1" fill="#510000" data-fill-palette-color="background" id="background"></rect><g id="tight-bounds" transform="matrix(1,0,0,1,160,20)"><svg viewBox="0 0 320 360" height="360" width="320"><g><svg></svg></g><g><svg viewBox="0 0 320 360" height="360" width="320"><g><path xmlns="http://www.w3.org/2000/svg" d="M307.925 179.999l6.575-11.387c11.322-19.607 4.604-44.679-15.003-56.001l-11.387-6.575v-13.151c0-22.639-18.354-40.994-40.994-40.994h-13.151l-6.575-11.387c-11.322-19.607-36.393-26.325-56.001-15.003l-11.39 6.572-11.387-6.576c-19.607-11.318-44.679-4.6-56.001 15.007l-6.575 11.387h-13.151c-22.639 0-40.994 18.354-40.994 40.994v13.151l-11.387 6.575c-19.607 11.322-26.325 36.393-15.003 56.001l6.572 11.387-6.576 11.387c-11.318 19.607-4.6 44.679 15.007 56l11.387 6.576v13.15c0 22.639 18.354 40.994 40.994 40.994h13.151l6.575 11.387c11.322 19.607 36.393 26.325 56.001 15.003l11.387-6.571 11.387 6.575c19.607 11.322 44.679 4.604 56-15.003l6.576-11.387h13.15c22.639 0 40.994-18.354 40.994-40.994v-13.151l11.387-6.575c19.607-11.322 26.325-36.393 15.003-56.001zM297.702 115.716c8.655 4.996 14.842 13.062 17.428 22.713 2.586 9.65 1.261 19.734-3.735 28.384l-5.538 9.596-17.747-30.74v-35.494zM251.155 271.155l-57.791 33.365h-66.731l-57.791-33.365-33.365-57.791v-66.731l33.365-57.791 57.791-33.365h66.731l57.791 33.365 33.365 57.791v66.731zM284.517 220.539v31.351l-27.151 15.676zM247.566 277.366l-15.676 27.151h-31.351zM187.15 308.106l-27.151 15.676-27.151-15.676zM119.459 304.517h-31.352l-15.676-27.151zM62.632 267.566l-27.151-15.676v-31.351zM31.891 207.15l-15.675-27.151 15.675-27.151zM35.481 139.459v-31.352l27.151-15.676zM72.431 82.632l15.676-27.151h31.352zM132.848 51.891l27.151-15.675 27.151 15.675zM200.539 55.481h31.351l15.676 27.151zM257.366 92.431l27.151 15.676v31.352zM288.106 152.848l15.676 27.151-15.676 27.151zM247.112 55.481c9.992 0 19.384 3.889 26.452 10.956 7.063 7.063 10.956 16.46 10.957 26.452v11.079l-30.741-17.747-17.747-30.74zM173.18 28.606c8.655-4.996 18.735-6.322 28.385-3.735 9.65 2.586 17.716 8.777 22.712 17.428l5.538 9.596h-35.494l-30.741-17.747zM95.716 42.295c4.996-8.655 13.062-14.842 22.713-17.428 9.65-2.586 19.734-1.261 28.384 3.736l9.596 5.537-30.74 17.747h-35.494zM35.481 92.885c0-9.992 3.889-19.384 10.956-26.452 7.063-7.063 16.46-10.956 26.452-10.956h11.079l-17.747 30.74-30.74 17.747zM8.606 166.817c-4.996-8.655-6.322-18.735-3.735-28.385 2.586-9.65 8.777-17.716 17.428-22.712l9.596-5.538v35.495l-17.747 30.74zM22.295 244.281c-8.655-4.996-14.842-13.062-17.428-22.712-2.586-9.65-1.261-19.734 3.736-28.385l5.537-9.596 17.747 30.74v35.495zM72.885 304.517c-9.992 0-19.384-3.889-26.452-10.957-7.063-7.063-10.956-16.46-10.956-26.451v-11.08l30.74 17.747 17.747 30.741zM146.817 331.391c-8.655 4.996-18.735 6.322-28.385 3.735-9.65-2.586-17.716-8.777-22.712-17.428l-5.538-9.596h35.495l30.74 17.747zM224.281 317.702c-4.996 8.655-13.062 14.842-22.712 17.428-9.65 2.586-19.734 1.261-28.385-3.735l-9.596-5.538 30.74-17.747h35.495zM284.517 267.112c0 9.992-3.889 19.384-10.957 26.452-7.063 7.063-16.46 10.956-26.451 10.957h-11.08l17.747-30.741 30.741-17.747zM315.13 221.565c-2.586 9.65-8.777 17.716-17.428 22.712l-9.596 5.538v-35.494l17.747-30.741 5.538 9.596c4.996 8.658 6.326 18.739 3.739 28.389z" fill="#ffffff" fill-rule="nonzero" stroke="none" stroke-width="1" stroke-linecap="butt" stroke-linejoin="miter" stroke-miterlimit="10" stroke-dasharray="" stroke-dashoffset="0" font-family="none" font-weight="none" font-size="none" text-anchor="none" style="mix-blend-mode: normal" data-fill-palette-color="tertiary"></path></g><g transform="matrix(1,0,0,1,70,90)"><svg viewBox="0 0 180 180" height="180" width="180"><g><svg viewBox="0 0 180 180" height="180" width="180"><g><svg viewBox="0 0 180 180" height="180" width="180"><g id="textblocktransform"><svg viewBox="0 0 180 180" height="180" width="180" id="textblock"><g><svg viewBox="0 0 180 180" height="180" width="180"><g transform="matrix(1,0,0,1,36.966991411008934,36.966991411008934)"><svg viewBox="0 0 106.06601717798213 106.06601717798213" height="106.06601717798213" width="106.06601717798213"><g id="icon-0"><circle r="53.033008588991066" cx="53.033008588991066" cy="53.033008588991066" fill="#ffffff" data-fill-palette-color="accent"></circle><svg xmlns="http://www.w3.org/2000/svg" xml:space="preserve" viewBox="0.0020000040531158447 0 99.99699401855469 100.00003814697266" x="15.90990257669732" y="15.90990257669732" height="74.24621202458749" width="74.24621202458749" class="icon-o-0" data-fill-palette-color="quaternary" id="o-0"><path d="M41.276 99.242l1.544-8.749a41.3 41.3 0 0 0 7.14 0.62 40.925 40.925 0 0 0 5.025-0.301l1.07 8.825a54 54 0 0 1-3.131 0.28q-1.493 0.085-2.964 0.083c-2.953 0-5.858-0.259-8.684-0.758m15.695-8.719a41 41 0 0 0 9.202-2.708l3.495 8.167a49.6 49.6 0 0 1-11.2 3.301z m-29.095 4.326l3.94-7.967a40.8 40.8 0 0 0 9.04 3.214l-1.972 8.666a49.8 49.8 0 0 1-11.008-3.913m40.113-7.869a41 41 0 0 0 8.076-5.178V81.8l5.638 6.868a49.7 49.7 0 0 1-9.822 6.304z m-51.738-0.091l5.996-6.556a41 41 0 0 0 7.792 5.613v0.004l-4.324 7.765a50.3 50.3 0 0 1-9.464-6.826m49.919 0.925h0.005l-0.002 0.001z m11.411-7.321a41.5 41.5 0 0 0 6.323-7.23l7.324 5.032a50.3 50.3 0 0 1-7.68 8.783zM7.294 76.016l7.584-4.627a41.4 41.4 0 0 0 5.923 7.554l-6.309 6.259a50.3 50.3 0 0 1-7.198-9.186m77.707-4.437a41 41 0 0 0 4.058-8.696l8.438 2.784a50 50 0 0 1-4.938 10.585z m-83.27-8.514l8.58-2.313a40.7 40.7 0 0 0 3.569 8.901v0.004l-7.804 4.25a49.6 49.6 0 0 1-4.345-10.842m87.909-2.104a41 41 0 0 0 1.455-9.487l8.88 0.305a49.8 49.8 0 0 1-1.771 11.55zM0.088 52.928a53 53 0 0 1-0.086-2.968q0-0.436 0.006-0.872l8.886 0.153q-0.007 0.361-0.006 0.719 0 1.212 0.072 2.446c0.126 2.19 0.426 4.326 0.876 6.4l-8.683 1.893a51 51 0 0 1-1.065-7.771m90.958-5.33a41.3 41.3 0 0 0-1.171-7.657l8.618-2.165c0.754 3 1.237 6.108 1.423 9.304q0.07 1.138 0.083 2.266l-8.887 0.121a42 42 0 0 0-0.066-1.869M0.11 46.657a49.8 49.8 0 0 1 2.131-11.49l8.487 2.636a41 41 0 0 0-1.753 9.437z m89.765-6.718v0.002z m-4.386-10.713l7.664-4.498a49.7 49.7 0 0 1 4.688 10.7l-8.504 2.584a40.6 40.6 0 0 0-3.848-8.786m-74.122 6.676l-8.345-3.049a50 50 0 0 1 5.265-10.422l7.413 4.905a41 41 0 0 0-4.329 8.566z m66.912-15.745l6.108-6.451a50.2 50.2 0 0 1 7.485 8.952l-7.436 4.865a41.5 41.5 0 0 0-6.157-7.366m-68.594 0.275a50.3 50.3 0 0 1 7.951-8.544l5.756 6.771a41.4 41.4 0 0 0-6.545 7.03z m59.141-6.987v-0.002l4.075-7.895a50.4 50.4 0 0 1 9.677 6.525l-5.79 6.741a41 41 0 0 0-7.962-5.369m-49.3-3.086a49.7 49.7 0 0 1 10.015-5.991l3.638 8.106a41 41 0 0 0-8.232 4.925z m38.36-0.716L59.58 0.918a49.8 49.8 0 0 1 11.128 3.563l-3.688 8.086a40.6 40.6 0 0 0-9.134-2.924m-22.861 2.055l-3.231-8.274A50 50 0 0 1 43.091 0.48l1.222 8.802a40.8 40.8 0 0 0-9.288 2.42z m15.02-2.811q-1.212-0.001-2.446 0.073-0.653 0.039-1.295 0.096L45.513 0.204A57 57 0 0 1 47.076 0.09Q48.566 0 50.045 0c2.414 0 4.797 0.174 7.131 0.51L55.91 9.306a41 41 0 0 0-5.865-0.419M41.904 87.635l1.862-8.688c2.007 0.431 4.093 0.656 6.238 0.656q1.386 0 2.732-0.124l0.809 8.847q-1.75 0.165-3.541 0.166c-2.776 0-5.485-0.297-8.1-0.857m12.748-8.393a29.4 29.4 0 0 0 8.542-2.73l3.967 7.95a38.1 38.1 0 0 1-11.128 3.558z m-25.799 2.917l4.887-7.419a29.5 29.5 0 0 0 8.155 3.74l-2.429 8.548a38.2 38.2 0 0 1-10.613-4.869m36.04-6.563a29.8 29.8 0 0 0 6.984-5.648l6.563 5.988a38.5 38.5 0 0 1-9.074 7.335zM18.665 72.35l7.235-5.166a29.6 29.6 0 0 0 6.265 6.44h-0.003l-5.361 7.086a38.6 38.6 0 0 1-8.136-8.36m54.469-3.872a29.5 29.5 0 0 0 4.48-7.778v0.003l8.286 3.213a38.5 38.5 0 0 1-5.829 10.113z m-60.433-8.963l8.614-2.19a29.4 29.4 0 0 0 3.51 8.254h0.003l-7.556 4.683a38.5 38.5 0 0 1-4.571-10.747m65.553-0.635a29.6 29.6 0 0 0 1.35-8.876h8.889a38.4 38.4 0 0 1-1.761 11.534z m-66.737-8.877q0.002-2.332 0.272-4.599l8.824 1.052a30 30 0 0 0-0.208 3.547c0 1.86 0.169 3.676 0.497 5.437l-8.736 1.622a38.3 38.3 0 0 1-0.649-7.059M77.621 39.32l8.289-3.209a38.4 38.4 0 0 1 2.504 11.404l-8.871 0.566a29.4 29.4 0 0 0-1.922-8.761m-65.453 3.605a38.3 38.3 0 0 1 3.862-11.024l7.839 4.187a29.2 29.2 0 0 0-2.965 8.462z m59.725-12.853l6.569-5.986a38.6 38.6 0 0 1 6.463 9.715l-8.058 3.743a29.8 29.8 0 0 0-4.974-7.472m-54.608-0.346a38.8 38.8 0 0 1 7.582-8.87l5.806 6.727a29.9 29.9 0 0 0-5.838 6.829z m45.929-6.224h-0.002l3.97-7.95a38.4 38.4 0 0 1 9.528 6.739l-6.165 6.395a29.6 29.6 0 0 0-7.331-5.184m-36.396-4.221a38.4 38.4 0 0 1 10.272-5.545l2.983 8.371a29.5 29.5 0 0 0-7.898 4.262z m25.935 1.243l0.814-8.847a38.2 38.2 0 0 1 11.329 2.826l-3.441 8.191a29.5 29.5 0 0 0-8.702-2.17m-13.267-7.555a38.5 38.5 0 0 1 10.518-1.455c0.353 0 0.708 0.002 1.058 0.015l-0.237 8.88a22 22 0 0 0-0.82-0.008c-2.814 0-5.524 0.387-8.095 1.117zM50.005 76.883h-0.342l0.111-8.888q0.114 0.002 0.231 0.002a17.95 17.95 0 0 0 7.81-1.777l3.862 8.001a26.7 26.7 0 0 1-11.652 2.662zM35.414 72.58l4.828-7.457a17.9 17.9 0 0 0 7.75 2.764l-0.978 8.829a26.7 26.7 0 0 1-11.6-4.136m23.965-7.213a18.1 18.1 0 0 0 5.867-5.796v0.003l7.519 4.732a26.9 26.9 0 0 1-8.752 8.641z m-33.742-3.999l8.053-3.761a18.1 18.1 0 0 0 5.104 6.474l-5.54 6.946a27 27 0 0 1-7.617-9.659m40.482-3.347a17.9 17.9 0 0 0 1.879-8.018q-0.002-1.045-0.113-2.057l8.828-1.001q0.17 1.508 0.172 3.058c0 4.291-1.012 8.376-2.815 11.982z m-42.996-8.019q0.001-1.69 0.205-3.332l8.819 1.093a18 18 0 0 0-0.137 2.239c0 2.099 0.356 4.095 1.007 5.958h0.001l-8.387 2.943a26.9 26.9 0 0 1-1.508-8.901m40.935-11.24v-0.003l6.933-5.555a26.8 26.8 0 0 1 5.293 11.119l-8.686 1.87a17.94 17.94 0 0 0-3.54-7.431m-40.273 5.287a26.8 26.8 0 0 1 5.408-11.063l6.875 5.628a17.9 17.9 0 0 0-3.615 7.397z m32.136-11.047l2.923-8.391a26.9 26.9 0 0 1 10.386 6.603l-6.355 6.208a18.04 18.04 0 0 0-6.954-4.42m-18.658 4.29l0.002-0.001 0.001 0.001z m-6.289-6.277a26.9 26.9 0 0 1 10.452-6.494l2.836 8.421a18 18 0 0 0-6.997 4.349z m19.031 0.99a18.3 18.3 0 0 0-4.035 0.454l-1.98-8.662a27 27 0 0 1 6.015-0.676c2.157 0 4.265 0.256 6.285 0.74l-2.072 8.641a18.2 18.2 0 0 0-4.213-0.497M45.401 65.105L47.99 56.6a6.9 6.9 0 0 0 2.014 0.298c1.31 0 2.502-0.356 3.538-0.974h0.003l4.569 7.618a15.74 15.74 0 0 1-8.11 2.243 15.9 15.9 0 0 1-4.603-0.68M34.682 53.803l8.627-2.135a6.92 6.92 0 0 0 3.439 4.418l-4.202 7.83a15.8 15.8 0 0 1-7.864-10.113m19.948 1.315a6.85 6.85 0 0 0 2.271-5.116 8 8 0 0 0-0.031-0.663l8.846-0.837q0.07 0.745 0.071 1.5c0 4.631-2.012 8.831-5.193 11.704z m-20.41-5.116a15.74 15.74 0 0 1 4.65-11.187l6.27 6.298a6.85 6.85 0 0 0-2.034 4.889q0 0.164 0.01 0.333l-8.876 0.416c-0.015-0.25-0.02-0.496-0.02-0.749m18.747-6.233l3.82-8.021a15.82 15.82 0 0 1 8.34 9.724l-8.512 2.548a6.94 6.94 0 0 0-3.648-4.251m-11.712-6.906a15.73 15.73 0 0 1 8.749-2.644c1.33 0 2.635 0.166 3.876 0.479l-2.177 8.616a6.8 6.8 0 0 0-1.699-0.21 6.83 6.83 0 0 0-3.818 1.152z m11.71 6.905l0.002 0.001-0.002 0.002z" fill="#e2b8a5" data-fill-palette-color="quaternary"></path></svg></g></svg></g><g id="text-0"><path d="M14.784 72.103l-11.641-12.078 1.165-3.051 16.808-1.453-1.158 3.032-2.818 0.216-3.166 8.291 1.968 2.011zM12.025 65.056l2.312-6.055-7.616 0.61z" fill="#e2b8a5" data-fill-palette-color="primary"></path><path d="M22.951 52.653l-12.572-8.514 4.328-6.391c0.656-0.969 1.324-1.737 2.003-2.307 0.677-0.578 1.364-0.971 2.059-1.178 0.695-0.207 1.395-0.239 2.1-0.097 0.704 0.142 1.403 0.448 2.097 0.919v0c0.465 0.315 0.869 0.67 1.214 1.066 0.344 0.396 0.613 0.832 0.806 1.306 0.199 0.478 0.316 0.986 0.352 1.524 0.035 0.539-0.016 1.108-0.153 1.709v0l5.871-0.005-2.11 3.116-5.173-0.049-0.052 0.076-2.624 3.857 3.577 2.423zM18.888 46.189l2.65-3.913c0.326-0.481 0.556-0.942 0.691-1.382 0.134-0.44 0.182-0.848 0.144-1.225-0.04-0.387-0.166-0.737-0.378-1.053-0.208-0.32-0.491-0.602-0.849-0.844v0c-0.705-0.478-1.414-0.607-2.126-0.387-0.711 0.229-1.394 0.828-2.05 1.797v0l-2.651 3.913z" fill="#e2b8a5" data-fill-palette-color="primary"></path><path d="M37.973 34.465l-8.291-9.335-4.194 3.725-1.792-2.017 10.685-9.491 1.792 2.017-4.186 3.718 8.292 9.336z" fill="#e2b8a5" data-fill-palette-color="primary"></path><path d="M48.17 26.406l-8.112-12.835 2.624-1.658 8.112 12.835z" fill="#e2b8a5" data-fill-palette-color="primary"></path><path d="M53.895 20.983l0.64-2.918c0.62 0.088 1.241 0.147 1.86 0.177 0.62 0.03 1.245 0.018 1.877-0.037 0.629-0.06 1.271-0.17 1.928-0.327 0.659-0.152 1.342-0.363 2.048-0.635v0c0.852-0.327 1.556-0.663 2.113-1.007 0.556-0.344 0.986-0.686 1.289-1.027 0.304-0.341 0.488-0.68 0.555-1.017 0.066-0.337 0.037-0.666-0.086-0.988v0c-0.196-0.511-0.567-0.836-1.113-0.975-0.543-0.132-1.26-0.027-2.15 0.315v0c-0.398 0.153-0.805 0.338-1.221 0.556-0.416 0.218-0.833 0.443-1.251 0.676-0.426 0.229-0.844 0.451-1.254 0.666-0.414 0.224-0.81 0.409-1.189 0.555v0c-0.631 0.242-1.272 0.394-1.922 0.455-0.644 0.059-1.256 0.011-1.836-0.142-0.574-0.156-1.087-0.426-1.539-0.81-0.454-0.391-0.806-0.911-1.056-1.562v0c-0.15-0.391-0.248-0.796-0.292-1.213-0.038-0.42-0.007-0.848 0.093-1.285 0.1-0.437 0.275-0.877 0.525-1.321 0.259-0.44 0.607-0.871 1.046-1.293 0.435-0.413 0.973-0.815 1.613-1.205 0.64-0.39 1.398-0.754 2.275-1.092v0c0.631-0.242 1.282-0.453 1.953-0.63 0.671-0.178 1.334-0.317 1.991-0.417 0.654-0.106 1.297-0.179 1.926-0.218 0.63-0.039 1.23-0.041 1.801-0.007v0l-0.369 2.803c-0.466-0.024-0.957-0.02-1.473 0.012-0.519 0.025-1.052 0.082-1.597 0.168-0.54 0.084-1.09 0.198-1.652 0.341-0.561 0.143-1.119 0.321-1.674 0.534v0c-0.789 0.303-1.417 0.61-1.885 0.92-0.468 0.31-0.819 0.612-1.054 0.904-0.233 0.299-0.367 0.583-0.402 0.85-0.031 0.258-0.004 0.498 0.081 0.719v0c0.162 0.423 0.485 0.697 0.968 0.823 0.481 0.12 1.112 0.029 1.895-0.271v0c0.316-0.121 0.667-0.281 1.054-0.481 0.393-0.202 0.803-0.417 1.229-0.646 0.435-0.225 0.878-0.449 1.328-0.673 0.448-0.23 0.893-0.43 1.334-0.6v0c0.833-0.32 1.611-0.51 2.335-0.57 0.717-0.058 1.359 0.003 1.928 0.183 0.569 0.18 1.058 0.474 1.468 0.881 0.41 0.408 0.733 0.917 0.968 1.53v0c0.313 0.814 0.405 1.612 0.278 2.392-0.134 0.783-0.466 1.53-0.998 2.241-0.533 0.705-1.249 1.36-2.146 1.965-0.897 0.605-1.952 1.141-3.164 1.607v0c-0.795 0.305-1.594 0.554-2.397 0.746-0.796 0.19-1.58 0.328-2.351 0.414-0.771 0.086-1.522 0.121-2.252 0.105-0.728-0.01-1.42-0.067-2.076-0.17z" fill="#e2b8a5" data-fill-palette-color="primary"></path><path d="M73.133 16.294l5.687-15.781 3.252-0.303 8.734 14.434-3.232 0.302-1.439-2.433-8.837 0.825-0.934 2.654zM78.234 10.704l6.453-0.603-3.913-6.561z" fill="#e2b8a5" data-fill-palette-color="primary"></path><path d="M94.131 15.027l2.176-15.027 3.042 0.441 8.666 6.256 0.71-4.899 3.041 0.441-2.176 15.027-3.042-0.441 0.999-6.896-8.669-6.236-1.705 11.774z" fill="#e2b8a5" data-fill-palette-color="primary"></path><path d="M114.301 19.243l6.262-13.832 2.8 1.267 2.751 7.325 7.311-2.769 2.8 1.267-6.262 13.832-2.8-1.267 4.505-9.951-7.218 2.566-2.844-7.122-4.506 9.952z" fill="#e2b8a5" data-fill-palette-color="primary"></path><path d="M132.366 28.286l15.37-6.72 2.456 2.152-4.477 16.266-2.441-2.139 0.777-2.718-6.675-5.849-2.569 1.147zM139.932 28.146l4.875 4.272 2.074-7.353z" fill="#e2b8a5" data-fill-palette-color="primary"></path><path d="M147.748 42.689l12.384-8.785 3.222 4.542c0.939 1.324 1.614 2.573 2.025 3.749 0.41 1.185 0.577 2.285 0.501 3.301-0.081 1.019-0.388 1.954-0.921 2.804-0.538 0.854-1.279 1.616-2.222 2.285v0c-0.899 0.638-1.839 1.072-2.818 1.303-0.99 0.229-1.99 0.222-3.001-0.023-1.007-0.239-2.016-0.738-3.027-1.497-1.007-0.753-1.98-1.792-2.918-3.115v0zM151.702 43.652l1.877 2.648c0.532 0.75 1.093 1.343 1.684 1.777 0.592 0.426 1.202 0.702 1.831 0.828 0.619 0.125 1.248 0.105 1.887-0.057 0.635-0.168 1.261-0.472 1.879-0.91v0c0.607-0.43 1.089-0.913 1.446-1.449 0.348-0.537 0.561-1.115 0.637-1.733 0.072-0.623-0.001-1.28-0.218-1.972-0.215-0.701-0.589-1.427-1.121-2.177v0l-1.878-2.647z" fill="#e2b8a5" data-fill-palette-color="primary"></path><path d="M157.97 58.888l14.11-5.609 4.777 12.017-2.507 0.997-3.642-9.162-2.818 1.121 3.226 8.115-2.357 0.937-3.226-8.116-3.93 1.563 3.717 9.35-2.498 0.993z" fill="#e2b8a5" data-fill-palette-color="primary"></path><path d="M4.9 91.609c0-0.974 0.789-1.763 1.763-1.763 0.974 0 1.763 0.789 1.763 1.763 0 0.974-0.789 1.763-1.763 1.763-0.974 0-1.763-0.789-1.763-1.763z" fill="#e2b8a5" data-fill-palette-color="primary"></path><path d="M169.217 91.609c0-0.974 0.789-1.763 1.763-1.763 0.974 0 1.763 0.789 1.762 1.763 0 0.974-0.789 1.763-1.762 1.763-0.974 0-1.763-0.789-1.763-1.763z" fill="#e2b8a5" data-fill-palette-color="primary"></path></g><g id="text-1"><path d="M4.063 115.209l16.728 1.244 1.166 3.051-11.562 12.286-1.158-3.032 1.958-2.039-3.167-8.291-2.807-0.187zM10.817 118.622l2.312 6.055 5.271-5.531z" fill="#e2b8a5" data-fill-palette-color="primary"></path><path d="M13.449 137l12.572-8.514 4.328 6.391c0.656 0.969 1.122 1.874 1.398 2.715 0.286 0.844 0.395 1.627 0.33 2.35-0.066 0.723-0.296 1.384-0.689 1.985-0.393 0.601-0.937 1.137-1.631 1.607v0c-0.465 0.315-0.945 0.558-1.441 0.731-0.496 0.172-1 0.26-1.511 0.264-0.518 0.008-1.033-0.072-1.547-0.239-0.513-0.167-1.023-0.426-1.53-0.777v0l-2.174 5.454-2.11-3.116 1.965-4.785-0.051-0.076-2.608-3.868-3.578 2.422zM20.959 135.626l2.65 3.913c0.326 0.481 0.668 0.866 1.027 1.155 0.358 0.288 0.72 0.484 1.084 0.588 0.374 0.106 0.746 0.119 1.117 0.04 0.375-0.074 0.741-0.232 1.1-0.475v0c0.705-0.478 1.088-1.088 1.148-1.831 0.051-0.745-0.252-1.602-0.907-2.571v0l-2.651-3.913z" fill="#e2b8a5" data-fill-palette-color="primary"></path><path d="M30.352 157.332l8.292-9.335-4.194-3.724 1.792-2.018 10.685 9.491-1.792 2.017-4.186-3.718-8.291 9.335z" fill="#e2b8a5" data-fill-palette-color="primary"></path><path d="M42.039 166.512l8.112-12.835 2.624 1.658-8.112 12.835z" fill="#e2b8a5" data-fill-palette-color="primary"></path><path d="M51.228 169.179l2.429-1.741c0.402 0.48 0.824 0.939 1.264 1.377 0.441 0.437 0.913 0.847 1.418 1.229 0.508 0.376 1.058 0.725 1.652 1.047 0.591 0.328 1.24 0.628 1.947 0.9v0c0.852 0.327 1.6 0.549 2.243 0.666 0.643 0.117 1.192 0.15 1.646 0.1 0.454-0.05 0.818-0.178 1.093-0.385 0.275-0.206 0.474-0.47 0.597-0.792v0c0.196-0.511 0.138-1.001-0.175-1.468-0.315-0.462-0.918-0.863-1.808-1.205v0c-0.398-0.153-0.824-0.287-1.279-0.405-0.455-0.117-0.915-0.228-1.381-0.335-0.47-0.115-0.929-0.23-1.378-0.344-0.457-0.11-0.875-0.238-1.254-0.384v0c-0.631-0.242-1.209-0.558-1.733-0.948-0.518-0.387-0.941-0.832-1.27-1.335-0.322-0.5-0.522-1.044-0.6-1.632-0.076-0.594 0.011-1.216 0.26-1.867v0c0.15-0.391 0.349-0.757 0.595-1.097 0.253-0.338 0.563-0.635 0.93-0.892 0.367-0.257 0.792-0.467 1.274-0.63 0.486-0.154 1.034-0.24 1.642-0.26 0.6-0.016 1.268 0.045 2.005 0.183 0.737 0.138 1.544 0.375 2.421 0.713v0c0.631 0.242 1.255 0.522 1.873 0.838 0.617 0.317 1.203 0.658 1.758 1.023 0.558 0.359 1.083 0.735 1.577 1.127 0.494 0.393 0.941 0.793 1.343 1.201v0l-2.15 1.836c-0.33-0.329-0.697-0.655-1.102-0.978-0.403-0.328-0.836-0.643-1.3-0.944-0.457-0.299-0.942-0.583-1.455-0.852-0.512-0.269-1.046-0.51-1.601-0.724v0c-0.789-0.303-1.461-0.496-2.016-0.579-0.555-0.083-1.018-0.094-1.389-0.033-0.373 0.067-0.662 0.187-0.867 0.362-0.196 0.171-0.336 0.367-0.422 0.588v0c-0.162 0.423-0.106 0.843 0.169 1.26 0.277 0.411 0.807 0.766 1.589 1.067v0c0.316 0.121 0.684 0.237 1.105 0.348 0.427 0.113 0.876 0.228 1.346 0.343 0.474 0.124 0.953 0.254 1.437 0.389 0.487 0.129 0.951 0.278 1.392 0.448v0c0.833 0.32 1.539 0.7 2.116 1.138 0.571 0.437 1.008 0.912 1.311 1.427 0.302 0.514 0.469 1.06 0.501 1.637 0.032 0.577-0.07 1.172-0.305 1.785v0c-0.313 0.814-0.778 1.469-1.395 1.963-0.624 0.492-1.371 0.825-2.241 0.997-0.868 0.166-1.838 0.174-2.91 0.023-1.072-0.151-2.214-0.459-3.426-0.924v0c-0.795-0.305-1.556-0.655-2.281-1.05-0.719-0.392-1.393-0.814-2.023-1.266-0.63-0.452-1.211-0.929-1.744-1.43-0.534-0.495-1.01-1-1.428-1.515z" fill="#e2b8a5" data-fill-palette-color="primary"></path><path d="M72.066 178.349l8.511-14.454 3.252 0.303 5.91 15.802-3.232-0.302-0.964-2.657-8.837-0.825-1.409 2.435zM78.114 173.8l6.453 0.603-2.631-7.173z" fill="#e2b8a5" data-fill-palette-color="primary"></path><path d="M95.776 179.548l-2.176-15.027 3.041-0.44 10.085 3.54-0.709-4.898 3.041-0.441 2.177 15.027-3.042 0.441-0.999-6.897-10.082-3.52 1.706 11.775z" fill="#e2b8a5" data-fill-palette-color="primary"></path><path d="M119.034 174.429l-6.262-13.832 2.799-1.268 7.32 2.765 2.743-7.32 2.799-1.268 6.263 13.833-2.8 1.267-4.505-9.951-2.835 7.117-7.228-2.562 4.505 9.951z" fill="#e2b8a5" data-fill-palette-color="primary"></path><path d="M139.93 163.563l-4.645-16.119 2.456-2.153 15.538 6.573-2.441 2.139-2.593-1.126-6.674 5.849 0.8 2.698zM140.784 156.043l4.875-4.271-7.017-3.021z" fill="#e2b8a5" data-fill-palette-color="primary"></path><path d="M157.108 147.168l-12.384-8.785 3.221-4.541c0.939-1.324 1.895-2.374 2.869-3.151 0.983-0.778 1.966-1.3 2.95-1.564 0.989-0.26 1.972-0.28 2.951-0.058 0.984 0.226 1.948 0.673 2.891 1.342v0c0.899 0.638 1.619 1.381 2.161 2.23 0.544 0.858 0.867 1.805 0.97 2.839 0.107 1.029-0.03 2.146-0.412 3.351-0.378 1.199-1.037 2.461-1.975 3.785v0zM156.71 143.118l1.878-2.647c0.532-0.75 0.906-1.476 1.121-2.177 0.206-0.699 0.265-1.367 0.177-2.001-0.087-0.625-0.313-1.213-0.678-1.762-0.369-0.544-0.862-1.034-1.48-1.473v0c-0.607-0.43-1.222-0.726-1.846-0.886-0.622-0.151-1.237-0.161-1.845-0.028-0.612 0.138-1.208 0.424-1.79 0.857-0.59 0.435-1.152 1.028-1.684 1.778v0l-1.877 2.647z" fill="#e2b8a5" data-fill-palette-color="primary"></path><path d="M168.634 128.569l-14.11-5.609 4.778-12.018 2.507 0.997-3.642 9.162 2.818 1.12 3.226-8.115 2.357 0.936-3.227 8.116 3.931 1.562 3.717-9.35 2.497 0.993z" fill="#e2b8a5" data-fill-palette-color="primary"></path></g></svg></g></svg></g></svg></g><g></g></svg></g></svg></g></svg></g><defs></defs></svg><rect width="320" height="360" fill="none" stroke="none" visibility="hidden"></rect></g></svg></g></g></g></g><rect width="185.7140716383749" height="105.37201769608114" x="228.1429482640881" y="104.9999943292513" rx="2.5" ry="2.5" fill="transparent" class="logo-element-hover-target"></rect><rect width="181.4229854220597" height="81.05801039738958" x="229.0629415919193" y="215.94197697244846" rx="2.5" ry="2.5" fill="transparent" class="logo-element-hover-target"></rect><rect width="118.06598610578465" height="118.06598610578462" x="261.9670069803369" y="141.96701055661526" rx="2.5" ry="2.5" fill="transparent" class="logo-element-hover-target"></rect></svg>