<?xml version="1.0"?>
<svg width="405" height="405" xmlns="http://www.w3.org/2000/svg" xmlns:svg="http://www.w3.org/2000/svg" version="1.1">
 <g class="layer">
  <title>Layer 1</title>
  <g id="svg_61">
   <g id="svg_62">
    <g id="svg_63">
     <g id="svg_9">
      <svg data-background-color="#510000" height="400" id="svg_2" preserveAspectRatio="xMidYMid meet" viewBox="0 0 640 400" width="640" x="-117" xmlns="http://www.w3.org/2000/svg" xmlns:xlink="http://www.w3.org/1999/xlink" y="1">
       <rect data-fill-palette-color="background" fill="#510000" height="400" id="svg_60" rx="200" ry="200" width="400" x="120" xmlns="http://www.w3.org/2000/svg" y="0"/>
       <g id="svg_3" transform="matrix(1,0,0,1,160,20)">
        <g id="svg_5">
         <svg height="360" id="svg_64" viewBox="0 0 320 360" width="320">
          <g id="svg_116">
           <svg id="svg_118"/>
          </g>
          <g id="svg_65">
           <svg height="360" id="svg_119" viewBox="0 0 320 360" width="320">
            <g id="svg_164">
             <path d="m307.93,180l6.57,-11.39c11.32,-19.61 4.6,-44.68 -15,-56l-11.39,-6.57l0,-13.16c0,-22.63 -18.35,-40.99 -40.99,-40.99l-13.15,0l-6.58,-11.39c-11.32,-19.6 -36.39,-26.32 -56,-15l-11.39,6.57l-11.39,-6.57c-19.6,-11.32 -44.68,-4.6 -56,15l-6.57,11.39l-13.15,0c-22.64,0 -41,18.35 -41,40.99l0,13.16l-11.39,6.57c-19.6,11.32 -26.32,36.39 -15,56l6.57,11.39l-6.57,11.39c-11.32,19.6 -4.6,44.67 15,56l11.39,6.57l0,13.15c0,22.64 18.36,41 41,41l13.15,0l6.57,11.38c11.32,19.61 36.39,26.33 56,15.01l11.39,-6.58l11.39,6.58c19.6,11.32 44.68,4.6 56,-15l6.57,-11.39l13.15,0c22.64,0 41,-18.35 41,-40.99l0,-13.16l11.38,-6.57c19.61,-11.32 26.33,-36.39 15.01,-56l-6.57,-11.39zm-10.23,-64.28c8.66,4.99 14.84,13.06 17.43,22.71c2.59,9.65 1.26,19.73 -3.74,28.38l-5.53,9.6l-17.75,-30.74l0,-35.5l9.59,5.55zm-46.54,155.43l-57.8,33.37l-66.73,0l-57.79,-33.37l-33.36,-57.79l0,-66.73l33.36,-57.79l57.79,-33.36l66.73,0l57.8,33.36l33.36,57.79l0,66.73l-33.36,57.79zm33.36,-50.61l0,31.35l-27.15,15.68l27.15,-47.03zm-36.95,56.83l-15.68,27.15l-31.35,0l47.03,-27.15zm-60.42,30.74l-27.15,15.67l-27.15,-15.67l54.3,0zm-67.69,-3.59l-31.35,0l-15.68,-27.15l47.03,27.15zm-56.83,-36.95l-27.15,-15.68l0,-31.35l27.15,47.03zm-30.74,-60.42l-15.67,-27.15l15.67,-27.15l0,54.3zm3.59,-67.69l0,-31.35l27.15,-15.68l-27.15,47.03zm36.95,-56.83l15.68,-27.15l31.35,0l-47.03,27.15zm60.42,-30.74l27.15,-15.67l27.15,15.67l-54.3,0zm67.69,3.59l31.35,0l15.68,27.15l-47.03,-27.15zm56.83,36.95l27.15,15.68l0,31.35l-27.15,-47.03zm30.74,60.42l15.67,27.15l-15.67,27.15l0,-54.3zm-41,-97.37c9.99,0 19.39,3.89 26.45,10.96c7.07,7.06 10.96,16.46 10.96,26.45l0,11.08l-30.74,-17.75l-17.75,-30.74l11.08,0zm-73.93,-26.87c8.66,-5 18.74,-6.33 28.38,-3.74c9.66,2.59 17.72,8.78 22.72,17.43l5.53,9.6l-35.49,0l-30.74,-17.75l9.6,-5.54zm-77.46,13.69c4.99,-8.66 13.06,-14.85 22.71,-17.43c9.65,-2.59 19.73,-1.26 28.38,3.73l9.6,5.54l-30.74,17.75l-35.5,0l5.55,-9.59zm-60.24,50.59c0,-10 3.89,-19.39 10.96,-26.46c7.06,-7.06 16.46,-10.95 26.45,-10.95l11.08,0l-17.75,30.74l-30.74,17.74l0,-11.07zm-26.87,73.93c-5,-8.66 -6.33,-18.74 -3.74,-28.39c2.59,-9.65 8.78,-17.71 17.43,-22.71l9.6,-5.54l0,35.5l-17.75,30.74l-5.54,-9.6zm13.69,77.46c-8.66,-5 -14.85,-13.06 -17.43,-22.71c-2.59,-9.65 -1.26,-19.73 3.73,-28.39l5.54,-9.59l17.75,30.74l0,35.49l-9.59,-5.54zm50.59,60.24c-10,0 -19.39,-3.89 -26.46,-10.96c-7.06,-7.06 -10.95,-16.46 -10.95,-26.45l0,-11.08l30.74,17.75l17.74,30.74l-11.07,0zm73.93,26.87c-8.66,5 -18.74,6.32 -28.39,3.74c-9.65,-2.59 -17.71,-8.78 -22.71,-17.43l-5.54,-9.6l35.5,0l30.74,17.75l-9.6,5.54zm77.46,-13.69c-5,8.66 -13.06,14.84 -22.71,17.43c-9.65,2.59 -19.73,1.26 -28.39,-3.74l-9.59,-5.53l30.74,-17.75l35.49,0l-5.54,9.59zm60.24,-50.59c0,9.99 -3.89,19.39 -10.96,26.45c-7.06,7.07 -16.46,10.96 -26.45,10.96l-11.08,0l17.75,-30.74l30.74,-17.75l0,11.08zm30.61,-45.55c-2.59,9.66 -8.78,17.72 -17.43,22.72l-9.59,5.53l0,-35.49l17.74,-30.74l5.54,9.6c5,8.65 6.33,18.73 3.74,28.38z" data-fill-palette-color="tertiary" fill="#ffffff" fill-rule="nonzero" id="svg_165" stroke-dashoffset="0" stroke-miterlimit="10" xmlns="http://www.w3.org/2000/svg"/>
            </g>
            <g id="svg_120" transform="matrix(1,0,0,1,70,90)">
             <svg height="180" id="svg_166" viewBox="0 0 180 180" width="180">
              <g id="svg_167">
               <svg height="180" id="svg_209" viewBox="0 0 180 180" width="180">
                <g id="svg_211">
                 <svg height="180" id="svg_250" viewBox="0 0 180 180" width="180">
                  <g id="svg_251">
                   <svg height="180" id="svg_288" viewBox="0 0 180 180" width="180">
                    <g id="svg_289">
                     <svg height="180" id="svg_324" viewBox="0 0 180 180" width="180">
                      <g id="svg_351" transform="matrix(1,0,0,1,36.966991411008934,36.966991411008934)">
                       <svg height="106.07" id="svg_358" viewBox="0 0 106.06601717798213 106.06601717798213" width="106.07">
                        <g id="svg_359">
                         <circle cx="53.03" cy="53.03" data-fill-palette-color="accent" fill="#ffffff" id="svg_363" r="53.03"/>
                         <g id="svg_360">
                          <svg class="icon-o-0" data-fill-palette-color="quaternary" height="74.25" id="svg_364" viewBox="0.0020000040531158447 0 99.99699401855469 100.00003814697266" width="74.25" x="15.91" xml:space="preserve" xmlns="http://www.w3.org/2000/svg" y="15.91">
                           <path d="m41.28,99.24l1.54,-8.75a41.3,41.3 0 0 0 7.14,0.62a40.92,40.92 0 0 0 5.02,-0.3l1.07,8.83a54,54 0 0 1 -3.13,0.28q-1.49,0.08 -2.96,0.08c-2.95,0 -5.86,-0.26 -8.68,-0.76m15.69,-8.72a41,41 0 0 0 9.2,-2.7l3.5,8.16a49.6,49.6 0 0 1 -11.2,3.3l-1.5,-8.76zm-29.09,4.33l3.94,-7.97a40.8,40.8 0 0 0 9.04,3.22l-1.98,8.66a49.8,49.8 0 0 1 -11,-3.91m40.11,-7.87a41,41 0 0 0 8.07,-5.18l0,0l5.64,6.87a49.7,49.7 0 0 1 -9.82,6.3l-3.89,-7.99zm-51.74,-0.09l6,-6.56a41,41 0 0 0 7.79,5.62l0,0l-4.32,7.77a50.3,50.3 0 0 1 -9.47,-6.83m49.92,0.92l0.01,0l-0.01,0.01l0,-0.01zm11.41,-7.32a41.5,41.5 0 0 0 6.32,-7.23l7.33,5.04a50.3,50.3 0 0 1 -7.68,8.78l-5.97,-6.59zm-70.29,-4.47l7.59,-4.63a41.4,41.4 0 0 0 5.92,7.55l-6.31,6.26a50.3,50.3 0 0 1 -7.2,-9.18m77.71,-4.44a41,41 0 0 0 4.06,-8.7l8.44,2.79a50,50 0 0 1 -4.94,10.58l-7.56,-4.67zm-83.27,-8.51l8.58,-2.32a40.7,40.7 0 0 0 3.57,8.9l0,0.01l-7.8,4.25a49.6,49.6 0 0 1 -4.35,-10.84m87.91,-2.11a41,41 0 0 0 1.45,-9.49l8.88,0.31a49.8,49.8 0 0 1 -1.77,11.55l-8.56,-2.37zm-89.55,-8.03a53,53 0 0 1 -0.09,-2.97q0,-0.44 0.01,-0.87l8.88,0.15q0,0.36 0,0.72q0,1.21 0.07,2.45c0.13,2.19 0.43,4.32 0.88,6.4l-8.69,1.89a51,51 0 0 1 -1.06,-7.77m90.96,-5.33a41.3,41.3 0 0 0 -1.18,-7.66l8.62,-2.16c0.76,3 1.24,6.1 1.43,9.3q0.07,1.14 0.08,2.27l-8.89,0.12a42,42 0 0 0 -0.06,-1.87m-90.94,-0.94a49.8,49.8 0 0 1 2.13,-11.49l8.49,2.63a41,41 0 0 0 -1.76,9.44l-8.86,-0.58zm89.77,-6.72l0,0zm-4.39,-10.71l7.66,-4.5a49.7,49.7 0 0 1 4.69,10.7l-8.5,2.58a40.6,40.6 0 0 0 -3.85,-8.78m-74.12,6.67l-8.35,-3.05a50,50 0 0 1 5.27,-10.42l7.41,4.91a41,41 0 0 0 -4.33,8.56zm66.91,-15.74l6.11,-6.45a50.2,50.2 0 0 1 7.48,8.95l-7.43,4.86a41.5,41.5 0 0 0 -6.16,-7.36m-68.59,0.27a50.3,50.3 0 0 1 7.95,-8.54l5.75,6.77a41.4,41.4 0 0 0 -6.54,7.03l-7.16,-5.26zm59.14,-6.99l0,0l4.07,-7.89a50.4,50.4 0 0 1 9.68,6.52l-5.79,6.74a41,41 0 0 0 -7.96,-5.37m-49.3,-3.08a49.7,49.7 0 0 1 10.01,-5.99l3.64,8.1a41,41 0 0 0 -8.23,4.93l-5.42,-7.04zm38.36,-0.72l1.69,-8.72a49.8,49.8 0 0 1 11.13,3.56l-3.69,8.09a40.6,40.6 0 0 0 -9.13,-2.93m-22.87,2.06l-3.23,-8.28a50,50 0 0 1 11.3,-2.94l1.22,8.8a40.8,40.8 0 0 0 -9.28,2.42l-0.01,0zm15.02,-2.81q-1.21,0 -2.44,0.07q-0.65,0.04 -1.3,0.1l-0.79,-8.86a57,57 0 0 1 1.57,-0.11q1.49,-0.09 2.97,-0.09c2.41,0 4.79,0.17 7.13,0.51l-1.27,8.8a41,41 0 0 0 -5.87,-0.42m-8.14,78.75l1.87,-8.69c2,0.43 4.09,0.65 6.23,0.65q1.39,0 2.74,-0.12l0.81,8.85q-1.75,0.16 -3.55,0.16c-2.77,0 -5.48,-0.29 -8.1,-0.85m12.75,-8.4a29.4,29.4 0 0 0 8.54,-2.73l3.97,7.95a38.1,38.1 0 0 1 -11.13,3.56l-1.38,-8.78zm-25.8,2.92l4.89,-7.42a29.5,29.5 0 0 0 8.16,3.74l-2.43,8.55a38.2,38.2 0 0 1 -10.62,-4.87m36.04,-6.56a29.8,29.8 0 0 0 6.99,-5.65l6.56,5.99a38.5,38.5 0 0 1 -9.07,7.33l-4.48,-7.67zm-46.23,-3.25l7.24,-5.17a29.6,29.6 0 0 0 6.26,6.44l0,0l-5.36,7.09a38.6,38.6 0 0 1 -8.14,-8.36m54.47,-3.87a29.5,29.5 0 0 0 4.48,-7.78l0,0l8.29,3.22a38.5,38.5 0 0 1 -5.83,10.11l-6.94,-5.55zm-60.43,-8.97l8.62,-2.19a29.4,29.4 0 0 0 3.51,8.26l0,0l-7.56,4.68a38.5,38.5 0 0 1 -4.57,-10.74m65.55,-0.64a29.6,29.6 0 0 0 1.35,-8.88l8.89,0a38.4,38.4 0 0 1 -1.76,11.54l-8.48,-2.66zm-66.73,-8.88q0,-2.33 0.27,-4.6l8.82,1.06a30,30 0 0 0 -0.2,3.54c0,1.86 0.16,3.68 0.49,5.44l-8.73,1.62a38.3,38.3 0 0 1 -0.65,-7.06m66.1,-10.68l8.29,-3.21a38.4,38.4 0 0 1 2.5,11.41l-8.87,0.56a29.4,29.4 0 0 0 -1.92,-8.76m-65.45,3.61a38.3,38.3 0 0 1 3.86,-11.03l7.84,4.19a29.2,29.2 0 0 0 -2.97,8.46l-8.73,-1.62zm59.72,-12.86l6.57,-5.98a38.6,38.6 0 0 1 6.46,9.71l-8.05,3.74a29.8,29.8 0 0 0 -4.98,-7.47m-54.61,-0.34a38.8,38.8 0 0 1 7.59,-8.87l5.8,6.72a29.9,29.9 0 0 0 -5.84,6.83l-7.55,-4.68zm45.93,-6.23l0,0l3.97,-7.95a38.4,38.4 0 0 1 9.53,6.74l-6.17,6.4a29.6,29.6 0 0 0 -7.33,-5.19m-36.39,-4.22a38.4,38.4 0 0 1 10.27,-5.54l2.98,8.37a29.5,29.5 0 0 0 -7.9,4.26l-5.35,-7.09zm25.93,1.24l0.82,-8.84a38.2,38.2 0 0 1 11.33,2.82l-3.45,8.19a29.5,29.5 0 0 0 -8.7,-2.17m-13.26,-7.55a38.5,38.5 0 0 1 10.51,-1.46c0.36,0 0.71,0.01 1.06,0.02l-0.24,8.88a22,22 0 0 0 -0.82,-0.01c-2.81,0 -5.52,0.39 -8.09,1.12l-2.42,-8.55zm10.52,63.91l-0.35,0l0.11,-8.89q0.12,0.01 0.24,0.01a17.95,17.95 0 0 0 7.81,-1.78l3.86,8a26.7,26.7 0 0 1 -11.65,2.66l-0.02,0zm-14.6,-4.3l4.83,-7.46a17.9,17.9 0 0 0 7.75,2.77l-0.98,8.83a26.7,26.7 0 0 1 -11.6,-4.14m23.97,-7.21a18.1,18.1 0 0 0 5.87,-5.8l0,0l7.52,4.74a26.9,26.9 0 0 1 -8.76,8.64l-4.63,-7.58zm-33.74,-4l8.05,-3.76a18.1,18.1 0 0 0 5.1,6.47l-5.54,6.95a27,27 0 0 1 -7.61,-9.66m40.48,-3.35a17.9,17.9 0 0 0 1.88,-8.02q0,-1.04 -0.11,-2.05l8.82,-1q0.17,1.5 0.18,3.05c0,4.29 -1.02,8.38 -2.82,11.99l-7.95,-3.97zm-43,-8.02q0,-1.69 0.21,-3.33l8.82,1.09a18,18 0 0 0 -0.14,2.24c0,2.1 0.36,4.1 1.01,5.96l0,0l-8.39,2.94a26.9,26.9 0 0 1 -1.51,-8.9m40.94,-11.24l0,0l6.93,-5.56a26.8,26.8 0 0 1 5.29,11.12l-8.68,1.87a17.94,17.94 0 0 0 -3.54,-7.43m-40.27,5.29a26.8,26.8 0 0 1 5.4,-11.06l6.88,5.62a17.9,17.9 0 0 0 -3.62,7.4l-8.66,-1.96zm32.13,-11.05l2.92,-8.39a26.9,26.9 0 0 1 10.39,6.6l-6.35,6.21a18.04,18.04 0 0 0 -6.96,-4.42m-18.66,4.29l0.01,0l0,0l-0.01,0zm-6.29,-6.27a26.9,26.9 0 0 1 10.46,-6.5l2.83,8.42a18,18 0 0 0 -7,4.35l-6.29,-6.27zm19.03,0.99a18.3,18.3 0 0 0 -4.03,0.45l-1.98,-8.66a27,27 0 0 1 6.02,-0.68c2.15,0 4.26,0.26 6.28,0.74l-2.07,8.64a18.2,18.2 0 0 0 -4.21,-0.49m-4.61,33.1l2.59,-8.51a6.9,6.9 0 0 0 2.01,0.3c1.31,0 2.51,-0.36 3.54,-0.98l0.01,0l4.56,7.62a15.74,15.74 0 0 1 -8.11,2.25a15.9,15.9 0 0 1 -4.6,-0.68m-10.72,-11.31l8.63,-2.13a6.92,6.92 0 0 0 3.44,4.42l-4.2,7.83a15.8,15.8 0 0 1 -7.87,-10.12m19.95,1.32a6.85,6.85 0 0 0 2.27,-5.12a8,8 0 0 0 -0.03,-0.66l8.85,-0.84q0.07,0.75 0.07,1.5c0,4.63 -2.01,8.83 -5.2,11.71l-5.96,-6.59zm-20.41,-5.12a15.74,15.74 0 0 1 4.65,-11.19l6.27,6.3a6.85,6.85 0 0 0 -2.03,4.89q0,0.17 0.01,0.34l-8.88,0.41c-0.01,-0.25 -0.02,-0.5 -0.02,-0.75m18.75,-6.23l3.82,-8.02a15.82,15.82 0 0 1 8.34,9.72l-8.51,2.55a6.94,6.94 0 0 0 -3.65,-4.25m-11.71,-6.91a15.73,15.73 0 0 1 8.74,-2.64c1.33,0 2.64,0.16 3.88,0.48l-2.18,8.61a6.8,6.8 0 0 0 -1.7,-0.21a6.83,6.83 0 0 0 -3.81,1.16l-4.93,-7.4zm11.71,6.91l0,0l0,0z" data-fill-palette-color="quaternary" fill="#e2b8a5" id="svg_365"/>
                          </svg>
                         </g>
                        </g>
                       </svg>
                      </g>
                      <g id="svg_337">
                       <path d="m14.78,72.1l-11.64,-12.08l1.17,-3.05l16.81,-1.45l-1.16,3.03l-2.82,0.22l-3.17,8.29l1.97,2.01l-1.16,3.03zm-2.75,-7.04l2.31,-6.06l-7.62,0.61l5.31,5.45z" data-fill-palette-color="primary" fill="#e2b8a5" id="svg_350"/>
                       <path d="m22.95,52.65l-12.57,-8.51l4.33,-6.39c0.65,-0.97 1.32,-1.74 2,-2.31c0.68,-0.58 1.36,-0.97 2.06,-1.18c0.69,-0.2 1.39,-0.24 2.1,-0.09c0.7,0.14 1.4,0.44 2.1,0.91l0,0c0.46,0.32 0.87,0.67 1.21,1.07c0.34,0.4 0.61,0.83 0.81,1.31c0.2,0.47 0.31,0.98 0.35,1.52c0.03,0.54 -0.02,1.11 -0.15,1.71l0,0l5.87,-0.01l-2.11,3.12l-5.18,-0.05l-0.05,0.08l-2.62,3.85l3.57,2.43l-1.72,2.54zm-4.06,-6.46l2.65,-3.91c0.32,-0.49 0.55,-0.95 0.69,-1.39c0.13,-0.44 0.18,-0.84 0.14,-1.22c-0.04,-0.39 -0.16,-0.74 -0.38,-1.05c-0.2,-0.32 -0.49,-0.61 -0.84,-0.85l0,0c-0.71,-0.48 -1.42,-0.61 -2.13,-0.39c-0.71,0.23 -1.39,0.83 -2.05,1.8l0,0l-2.65,3.91l4.57,3.1z" data-fill-palette-color="primary" fill="#e2b8a5" id="svg_349"/>
                       <path d="m37.97,34.47l-8.29,-9.34l-4.19,3.73l-1.79,-2.02l10.68,-9.49l1.79,2.01l-4.18,3.72l8.29,9.34l-2.31,2.05z" data-fill-palette-color="primary" fill="#e2b8a5" id="svg_348"/>
                       <path d="m48.17,26.41l-8.11,-12.84l2.62,-1.66l8.11,12.84l-2.62,1.66z" data-fill-palette-color="primary" fill="#e2b8a5" id="svg_347"/>
                       <path d="m53.9,20.98l0.64,-2.91c0.62,0.08 1.24,0.14 1.86,0.17c0.62,0.03 1.24,0.02 1.87,-0.03c0.63,-0.06 1.27,-0.17 1.93,-0.33c0.66,-0.15 1.34,-0.36 2.05,-0.64l0,0c0.85,-0.32 1.55,-0.66 2.11,-1c0.56,-0.35 0.99,-0.69 1.29,-1.03c0.3,-0.34 0.49,-0.68 0.56,-1.02c0.06,-0.34 0.03,-0.66 -0.09,-0.99l0,0c-0.2,-0.51 -0.57,-0.83 -1.11,-0.97c-0.55,-0.13 -1.26,-0.03 -2.15,0.31l0,0c-0.4,0.16 -0.81,0.34 -1.22,0.56c-0.42,0.22 -0.84,0.44 -1.26,0.68c-0.42,0.22 -0.84,0.45 -1.25,0.66c-0.41,0.23 -0.81,0.41 -1.19,0.56l0,0c-0.63,0.24 -1.27,0.39 -1.92,0.45c-0.64,0.06 -1.26,0.01 -1.84,-0.14c-0.57,-0.16 -1.08,-0.43 -1.54,-0.81c-0.45,-0.39 -0.8,-0.91 -1.05,-1.56l0,0c-0.15,-0.39 -0.25,-0.8 -0.29,-1.22c-0.04,-0.42 -0.01,-0.84 0.09,-1.28c0.1,-0.44 0.27,-0.88 0.52,-1.32c0.26,-0.44 0.61,-0.87 1.05,-1.29c0.44,-0.42 0.97,-0.82 1.61,-1.21c0.64,-0.39 1.4,-0.75 2.28,-1.09l0,0c0.63,-0.24 1.28,-0.45 1.95,-0.63c0.67,-0.18 1.34,-0.32 1.99,-0.42c0.66,-0.1 1.3,-0.18 1.93,-0.22c0.63,-0.04 1.23,-0.04 1.8,0l0,0l-0.37,2.8c-0.47,-0.02 -0.96,-0.02 -1.47,0.01c-0.52,0.03 -1.05,0.08 -1.6,0.17c-0.54,0.08 -1.09,0.2 -1.65,0.34c-0.56,0.14 -1.12,0.32 -1.68,0.53l0,0c-0.78,0.31 -1.41,0.61 -1.88,0.92c-0.47,0.31 -0.82,0.62 -1.05,0.91c-0.24,0.3 -0.37,0.58 -0.41,0.85c-0.03,0.26 0,0.5 0.08,0.72l0,0c0.17,0.42 0.49,0.69 0.97,0.82c0.48,0.12 1.11,0.03 1.9,-0.27l0,0c0.31,-0.12 0.66,-0.28 1.05,-0.48c0.39,-0.2 0.8,-0.42 1.23,-0.65c0.44,-0.22 0.88,-0.45 1.33,-0.67c0.45,-0.23 0.89,-0.43 1.33,-0.6l0,0c0.84,-0.32 1.61,-0.51 2.34,-0.57c0.71,-0.06 1.36,0 1.93,0.18c0.56,0.18 1.05,0.48 1.46,0.88c0.41,0.41 0.74,0.92 0.97,1.53l0,0c0.31,0.82 0.41,1.62 0.28,2.4c-0.13,0.78 -0.47,1.53 -1,2.24c-0.53,0.7 -1.25,1.36 -2.14,1.96c-0.9,0.61 -1.96,1.14 -3.17,1.61l0,0c-0.79,0.3 -1.59,0.55 -2.4,0.74c-0.79,0.19 -1.58,0.33 -2.35,0.42c-0.77,0.08 -1.52,0.12 -2.25,0.1c-0.73,-0.01 -1.42,-0.06 -2.07,-0.17z" data-fill-palette-color="primary" fill="#e2b8a5" id="svg_346"/>
                       <path d="m73.13,16.29l5.69,-15.78l3.25,-0.3l8.74,14.43l-3.24,0.31l-1.44,-2.44l-8.83,0.83l-0.94,2.65l-3.23,0.3zm5.1,-5.59l6.46,-0.6l-3.92,-6.56l-2.54,7.16z" data-fill-palette-color="primary" fill="#e2b8a5" id="svg_345"/>
                       <path d="m94.13,15.03l2.18,-15.03l3.04,0.44l8.67,6.26l0.7,-4.9l3.05,0.44l-2.18,15.03l-3.04,-0.45l1,-6.89l-8.67,-6.24l-1.71,11.78l-3.04,-0.44z" data-fill-palette-color="primary" fill="#e2b8a5" id="svg_344"/>
                       <path d="m114.3,19.24l6.26,-13.83l2.8,1.27l2.75,7.32l7.32,-2.77l2.8,1.27l-6.27,13.83l-2.8,-1.26l4.51,-9.96l-7.22,2.57l-2.84,-7.12l-4.51,9.95l-2.8,-1.27z" data-fill-palette-color="primary" fill="#e2b8a5" id="svg_343"/>
                       <path d="m132.37,28.29l15.37,-6.72l2.45,2.15l-4.47,16.26l-2.45,-2.14l0.78,-2.71l-6.67,-5.85l-2.57,1.14l-2.44,-2.13zm7.56,-0.14l4.88,4.27l2.07,-7.36l-6.95,3.09z" data-fill-palette-color="primary" fill="#e2b8a5" id="svg_342"/>
                       <path d="m147.75,42.69l12.38,-8.79l3.22,4.55c0.94,1.32 1.62,2.57 2.03,3.75c0.41,1.18 0.58,2.28 0.5,3.3c-0.08,1.02 -0.39,1.95 -0.92,2.8c-0.54,0.85 -1.28,1.62 -2.22,2.29l0,0c-0.9,0.63 -1.84,1.07 -2.82,1.3c-0.99,0.23 -1.99,0.22 -3,-0.02c-1.01,-0.24 -2.02,-0.74 -3.03,-1.5c-1.01,-0.75 -1.98,-1.79 -2.92,-3.12l0,0l-3.22,-4.56zm3.95,0.96l1.88,2.65c0.53,0.75 1.09,1.34 1.68,1.78c0.6,0.42 1.21,0.7 1.83,0.83c0.62,0.12 1.25,0.1 1.89,-0.06c0.64,-0.17 1.26,-0.47 1.88,-0.91l0,0c0.61,-0.43 1.09,-0.91 1.45,-1.45c0.34,-0.54 0.56,-1.12 0.63,-1.73c0.07,-0.63 0,-1.28 -0.22,-1.98c-0.21,-0.7 -0.58,-1.42 -1.12,-2.17l0,0l-1.87,-2.65l-8.03,5.69z" data-fill-palette-color="primary" fill="#e2b8a5" id="svg_341"/>
                       <path d="m157.97,58.89l14.11,-5.61l4.78,12.02l-2.51,0.99l-3.64,-9.16l-2.82,1.12l3.23,8.12l-2.36,0.93l-3.23,-8.11l-3.93,1.56l3.72,9.35l-2.5,0.99l-4.85,-12.2z" data-fill-palette-color="primary" fill="#e2b8a5" id="svg_340"/>
                       <path d="m4.9,91.61c0,-0.98 0.79,-1.76 1.76,-1.76c0.98,0 1.77,0.78 1.77,1.76c0,0.97 -0.79,1.76 -1.77,1.76c-0.97,0 -1.76,-0.79 -1.76,-1.76z" data-fill-palette-color="primary" fill="#e2b8a5" id="svg_339"/>
                       <path d="m169.22,91.61c0,-0.98 0.79,-1.76 1.76,-1.76c0.97,0 1.76,0.78 1.76,1.76c0,0.97 -0.79,1.76 -1.76,1.76c-0.97,0 -1.76,-0.79 -1.76,-1.76z" data-fill-palette-color="primary" fill="#e2b8a5" id="svg_338"/>
                      </g>
                      <g id="svg_325">
                       <path d="m4.06,115.21l16.73,1.24l1.17,3.05l-11.56,12.29l-1.16,-3.03l1.96,-2.04l-3.17,-8.29l-2.81,-0.19l-1.16,-3.03zm6.76,3.41l2.31,6.06l5.27,-5.53l-7.58,-0.53z" data-fill-palette-color="primary" fill="#e2b8a5" id="svg_336"/>
                       <path d="m13.45,137l12.57,-8.51l4.33,6.39c0.65,0.97 1.12,1.87 1.4,2.71c0.28,0.85 0.39,1.63 0.33,2.35c-0.07,0.72 -0.3,1.39 -0.69,1.99c-0.4,0.6 -0.94,1.13 -1.63,1.6l0,0c-0.47,0.32 -0.95,0.56 -1.44,0.73c-0.5,0.18 -1,0.26 -1.52,0.27c-0.51,0.01 -1.03,-0.07 -1.54,-0.24c-0.52,-0.17 -1.03,-0.43 -1.53,-0.78l0,0l-2.18,5.46l-2.11,-3.12l1.97,-4.78l-0.05,-0.08l-2.61,-3.87l-3.58,2.42l-1.72,-2.54zm7.51,-1.37l2.65,3.91c0.32,0.48 0.67,0.87 1.03,1.15c0.35,0.29 0.72,0.49 1.08,0.59c0.37,0.11 0.75,0.12 1.12,0.04c0.37,-0.07 0.74,-0.23 1.1,-0.47l0,0c0.7,-0.48 1.09,-1.09 1.15,-1.83c0.05,-0.75 -0.26,-1.61 -0.91,-2.57l0,0l-2.65,-3.92l-4.57,3.1z" data-fill-palette-color="primary" fill="#e2b8a5" id="svg_335"/>
                       <path d="m30.35,157.33l8.29,-9.33l-4.19,-3.73l1.79,-2.02l10.69,9.5l-1.8,2.01l-4.18,-3.72l-8.29,9.34l-2.31,-2.05z" data-fill-palette-color="primary" fill="#e2b8a5" id="svg_334"/>
                       <path d="m42.04,166.51l8.11,-12.83l2.63,1.65l-8.12,12.84l-2.62,-1.66z" data-fill-palette-color="primary" fill="#e2b8a5" id="svg_333"/>
                       <path d="m51.23,169.18l2.43,-1.74c0.4,0.48 0.82,0.94 1.26,1.37c0.44,0.44 0.91,0.85 1.42,1.23c0.51,0.38 1.06,0.73 1.65,1.05c0.59,0.33 1.24,0.63 1.95,0.9l0,0c0.85,0.33 1.6,0.55 2.24,0.67c0.64,0.11 1.19,0.15 1.65,0.1c0.45,-0.05 0.82,-0.18 1.09,-0.39c0.28,-0.2 0.47,-0.47 0.6,-0.79l0,0c0.19,-0.51 0.14,-1 -0.18,-1.47c-0.31,-0.46 -0.92,-0.86 -1.81,-1.2l0,0c-0.39,-0.16 -0.82,-0.29 -1.27,-0.41c-0.46,-0.11 -0.92,-0.23 -1.39,-0.33c-0.47,-0.12 -0.92,-0.23 -1.37,-0.35c-0.46,-0.11 -0.88,-0.23 -1.26,-0.38l0,0c-0.63,-0.24 -1.21,-0.56 -1.73,-0.95c-0.52,-0.39 -0.94,-0.83 -1.27,-1.33c-0.32,-0.5 -0.52,-1.05 -0.6,-1.64c-0.08,-0.59 0.01,-1.21 0.26,-1.86l0,0c0.15,-0.39 0.35,-0.76 0.59,-1.1c0.26,-0.34 0.57,-0.63 0.93,-0.89c0.37,-0.26 0.8,-0.47 1.28,-0.63c0.48,-0.16 1.03,-0.24 1.64,-0.26c0.6,-0.02 1.27,0.04 2.01,0.18c0.73,0.14 1.54,0.38 2.42,0.71l0,0c0.63,0.25 1.25,0.53 1.87,0.84c0.62,0.32 1.2,0.66 1.76,1.02c0.56,0.36 1.08,0.74 1.57,1.13c0.5,0.4 0.95,0.8 1.35,1.2l0,0l-2.15,1.84c-0.33,-0.33 -0.7,-0.66 -1.11,-0.98c-0.4,-0.33 -0.83,-0.64 -1.29,-0.94c-0.46,-0.3 -0.95,-0.59 -1.46,-0.85c-0.51,-0.27 -1.05,-0.51 -1.6,-0.73l0,0c-0.79,-0.3 -1.46,-0.49 -2.02,-0.58c-0.55,-0.08 -1.01,-0.09 -1.39,-0.03c-0.37,0.07 -0.66,0.19 -0.86,0.36c-0.2,0.17 -0.34,0.37 -0.42,0.59l0,0c-0.17,0.42 -0.11,0.84 0.16,1.26c0.28,0.41 0.81,0.76 1.59,1.07l0,0c0.32,0.12 0.69,0.23 1.11,0.34c0.42,0.12 0.87,0.23 1.34,0.35c0.48,0.12 0.96,0.25 1.44,0.39c0.49,0.13 0.95,0.27 1.39,0.44l0,0c0.84,0.32 1.54,0.7 2.12,1.14c0.57,0.44 1.01,0.91 1.31,1.43c0.3,0.51 0.47,1.06 0.5,1.64c0.03,0.57 -0.07,1.17 -0.3,1.78l0,0c-0.32,0.82 -0.78,1.47 -1.4,1.96c-0.62,0.5 -1.37,0.83 -2.24,1c-0.87,0.17 -1.84,0.18 -2.91,0.02c-1.07,-0.15 -2.21,-0.45 -3.43,-0.92l0,0c-0.79,-0.3 -1.55,-0.65 -2.28,-1.05c-0.72,-0.39 -1.39,-0.81 -2.02,-1.27c-0.63,-0.45 -1.21,-0.92 -1.74,-1.43c-0.54,-0.49 -1.01,-1 -1.43,-1.51z" data-fill-palette-color="primary" fill="#e2b8a5" id="svg_332"/>
                       <path d="m72.07,178.35l8.51,-14.46l3.25,0.31l5.91,15.8l-3.23,-0.3l-0.97,-2.66l-8.83,-0.82l-1.41,2.43l-3.23,-0.3zm6.04,-4.55l6.46,0.6l-2.63,-7.17l-3.83,6.57z" data-fill-palette-color="primary" fill="#e2b8a5" id="svg_331"/>
                       <path d="m95.78,179.55l-2.18,-15.03l3.04,-0.44l10.09,3.54l-0.71,-4.9l3.04,-0.44l2.17,15.03l-3.04,0.44l-1,-6.9l-10.08,-3.52l1.71,11.78l-3.04,0.44z" data-fill-palette-color="primary" fill="#e2b8a5" id="svg_330"/>
                       <path d="m119.03,174.43l-6.26,-13.83l2.8,-1.27l7.32,2.76l2.74,-7.32l2.8,-1.26l6.27,13.83l-2.8,1.27l-4.51,-9.95l-2.83,7.11l-7.23,-2.56l4.5,9.95l-2.8,1.27z" data-fill-palette-color="primary" fill="#e2b8a5" id="svg_329"/>
                       <path d="m139.93,163.56l-4.65,-16.12l2.46,-2.15l15.54,6.57l-2.44,2.14l-2.59,-1.12l-6.68,5.85l0.8,2.69l-2.44,2.14zm0.85,-7.52l4.88,-4.27l-7.02,-3.02l2.14,7.29z" data-fill-palette-color="primary" fill="#e2b8a5" id="svg_328"/>
                       <path d="m157.11,147.17l-12.39,-8.79l3.22,-4.54c0.94,-1.32 1.9,-2.37 2.87,-3.15c0.99,-0.78 1.97,-1.3 2.95,-1.56c0.99,-0.26 1.98,-0.28 2.95,-0.06c0.99,0.23 1.95,0.67 2.9,1.34l0,0c0.89,0.64 1.61,1.38 2.16,2.23c0.54,0.86 0.86,1.81 0.97,2.84c0.1,1.03 -0.03,2.15 -0.42,3.35c-0.37,1.2 -1.03,2.46 -1.97,3.79l0,0l-3.24,4.55zm-0.4,-4.05l1.88,-2.65c0.53,-0.75 0.9,-1.47 1.12,-2.18c0.21,-0.7 0.26,-1.36 0.18,-2c-0.09,-0.62 -0.32,-1.21 -0.68,-1.76c-0.37,-0.54 -0.86,-1.03 -1.48,-1.47l0,0c-0.61,-0.43 -1.22,-0.73 -1.85,-0.89c-0.62,-0.15 -1.23,-0.16 -1.84,-0.03c-0.61,0.14 -1.21,0.43 -1.79,0.86c-0.59,0.44 -1.15,1.03 -1.69,1.78l0,0l-1.87,2.65l8.02,5.69z" data-fill-palette-color="primary" fill="#e2b8a5" id="svg_327"/>
                       <path d="m168.63,128.57l-14.11,-5.61l4.78,-12.02l2.51,1l-3.64,9.16l2.82,1.12l3.22,-8.11l2.36,0.93l-3.23,8.12l3.93,1.56l3.72,-9.35l2.5,0.99l-4.86,12.21z" data-fill-palette-color="primary" fill="#e2b8a5" id="svg_326"/>
                      </g>
                     </svg>
                    </g>
                   </svg>
                  </g>
                 </svg>
                </g>
                <g id="svg_210"/>
               </svg>
              </g>
             </svg>
            </g>
           </svg>
          </g>
         </svg>
        </g>
        <rect fill="none" height="360" id="svg_4" width="320"/>
       </g>
      </svg>
     </g>
    </g>
   </g>
  </g>
  <rect class="logo-element-hover-target" fill="transparent" height="105.37" id="svg_103" rx="2.5" ry="2.5" width="185.71" x="229.14" y="103"/>
  <rect class="logo-element-hover-target" fill="transparent" height="81.06" id="svg_104" rx="2.5" ry="2.5" transform="matrix(1 0 0 1 0 0)" width="181.42" x="229.06" y="219.94"/>
  <rect class="logo-element-hover-target" fill="transparent" height="118.07" id="svg_105" rx="2.5" ry="2.5" transform="matrix(1 0 0 1 0 0)" width="118.07" x="263.97" y="138.97"/>
 </g>
</svg>